# xmcd CD database file
#
# Track frame offsets:
#	150
#	13782
#	26419
#	37838
#	49255
#	60757
#	72798
#	84734
#	96575
#	109393
#	120271
#	135754
#	148155
#	160622
#	173493
#	186507
#	198965
#	213856
#
# Disc length: 3054 seconds
#
# Revision: 2
# Processed by: cddbd v1.5.2PL0 Copyright (c) Steve Scherf et al.
# Submitted via: CDex 1.51
#
DISCID=ea0bec12
DTITLE=Count Basie - Vol.02 - Riff Interlude
DYEAR=1900
DGENRE=Jazz
TTITLE0=Riff Interlude
TTITLE1=Volcano
TTITLE2=Between The Devil And The Deep Blue Sea
TTITLE3=Ham 'n' Eggs
TTITLE4=Hollywood Jump
TTITLE5=Someday, Sweetheart
TTITLE6=I Never Knew
TTITLE7=Tickle - Toe
TTITLE8=Let's Make Hey ! While The Sun Shines
TTITLE9=Louisiana
TTITLE10=Easi Does It
TTITLE11=Let Me See
TTITLE12=Blues  (I Still Think Of Her)
TTITLE13=Somebody Stole My Gal
TTITLE14=Blow Top
TTITLE15=Gone With ''What'' Wind
TTITLE16=You Can't Run Around
TTITLE17=Super Chief
EXTD=
EXTT0=
EXTT1=
EXTT2=
EXTT3=
EXTT4=
EXTT5=
EXTT6=
EXTT7=
EXTT8=
EXTT9=
EXTT10=
EXTT11=
EXTT12=
EXTT13=
EXTT14=
EXTT15=
EXTT16=
EXTT17=
PLAYORDER=
